<svg width="157" height="154" viewBox="0 0 157 154" fill="none" xmlns="http://www.w3.org/2000/svg">
<circle cx="60.0625" cy="51.0625" r="15.0625" fill="black"/>
<path d="M60.4541 39.0099C71.6248 35.3335 82.625 58.8335 60.4542 84.3334" stroke="black" stroke-width="4.63748" stroke-linecap="round"/>
<circle cx="96.0625" cy="51.0625" r="15.0625" fill="black"/>
<path d="M96.4541 39.0099C107.625 35.3335 118.625 58.8335 96.4542 84.3334" stroke="black" stroke-width="4.63748" stroke-linecap="round"/>
<path d="M153.625 118.479V13.0417C153.625 7.49581 149.129 3 143.583 3H13.0417C7.49581 3 3 7.4958 3 13.0417V108.397C3 113.959 7.52028 118.461 13.0818 118.439L123 118" stroke="black" stroke-width="5.02083" stroke-linecap="round"/>
<path d="M125.406 116.845C124.504 115.793 122.919 115.671 121.866 116.573C120.814 117.475 120.692 119.06 121.594 120.113L125.406 116.845ZM148.325 147.442L146.419 149.076L148.325 147.442ZM121.594 120.113L146.419 149.076L150.231 145.808L125.406 116.845L121.594 120.113ZM156.135 145.481V118.479H151.115V145.481H156.135ZM146.419 149.076C149.756 152.969 156.135 150.609 156.135 145.481H151.115C151.115 145.639 151.072 145.723 151.033 145.776C150.984 145.842 150.901 145.91 150.787 145.952C150.673 145.994 150.565 145.997 150.485 145.978C150.421 145.964 150.334 145.928 150.231 145.808L146.419 149.076Z" fill="black"/>
</svg>
